# xmcd
#
# Track frame offsets: 
#        150
#        12815
#        25947
#        37025
#        52632
#        66158
#        80878
#        92558
#        106088
#        119646
#        133123
#        147394
#        160643
#        174385
#        187553
#        202272
#        215355
#        229135
#        242420
#        256644
#
# Disc length: 3588 seconds
#
# Revision: 0
# Processed by: cddbd v1.5.1PL2 Copyright (c) Steve Scherf et al.
# Submitted via: ExactAudioCopy v0.95b3
#
DISCID=060e0214
DTITLE=Various Artist - Forever in the Blues
DYEAR=1900
DGENRE=Jazz
TTITLE0=Ray Charles - Yesterday
TTITLE1=Billie Holiday - St. Louis Blues
TTITLE2=Peggy Lee - Why Don't You Do Right
TTITLE3=Lizzie Miles - My Man O'War
TTITLE4=Bessie Smith - The Yellow Dog Blues
TTITLE5=Bertha Chiipie - Some Cold Rainy Day
TTITLE6=Lightnin Hopkins - Someday Baby
TTITLE7=Woody Guthrie - House of the Rising Sun
TTITLE8=Ray Charles - You Are My Sunshine
TTITLE9=Mississipi John Hurt - Stack O' Lee Blues
TTITLE10=Ella Johnson - That's the Stuff You Gotta Watch
TTITLE11=Ethel Waters - My Handy Man
TTITLE12=Robert Johnson - Sweet Home Chicago
TTITLE13=Leadbelly - Good Morning Blues
TTITLE14=Wee Bea Booze - Uncle Sam Come and Get Him
TTITLE15=Merline Johnson - Pallet on the Floor
TTITLE16=Lil Johnson - That Bonus Done Gone Through
TTITLE17=Joan Baez - House of the Rising Sun
TTITLE18=Victoria Spivey - Dirty Tee Bee Blues
TTITLE19=B.B. King - Rock Me Baby
EXTD=
EXTT0=
EXTT1=
EXTT2=
EXTT3=
EXTT4=
EXTT5=
EXTT6=
EXTT7=
EXTT8=
EXTT9=
EXTT10=
EXTT11=
EXTT12=
EXTT13=
EXTT14=
EXTT15=
EXTT16=
EXTT17=
EXTT18=
EXTT19=
PLAYORDER=
